<?xml version="1.0" standalone="no"?>
<!DOCTYPE svg PUBLIC "-//W3C//DTD SVG 20010904//EN"
 "http://www.w3.org/TR/2001/REC-SVG-20010904/DTD/svg10.dtd">
<svg version="1.0" xmlns="http://www.w3.org/2000/svg"
 width="640.000000pt" height="640.000000pt" viewBox="0 0 640.000000 640.000000"
 preserveAspectRatio="xMidYMid meet">
<metadata>
Created by potrace 1.14, written by Peter Selinger 2001-2017
</metadata>
<g transform="translate(0.000000,640.000000) scale(0.100000,-0.100000)"
fill="#000000" stroke="none">
<path d="M3150 5723 c-350 -129 -488 -179 -545 -200 -38 -14 -79 -29 -90 -34
-11 -5 -139 -51 -285 -104 -146 -53 -274 -100 -285 -105 -11 -5 -45 -18 -75
-29 -64 -22 -664 -242 -760 -278 -36 -14 -98 -36 -137 -51 l-73 -26 0 -273 0
-274 78 3 77 3 3 178 c3 205 -4 195 109 151 81 -32 114 -44 213 -80 41 -14 99
-35 127 -46 29 -10 76 -27 105 -38 29 -10 80 -28 113 -40 33 -12 83 -30 110
-40 28 -10 77 -28 110 -40 33 -12 75 -28 93 -36 25 -11 86 -14 264 -14 127 0
229 2 226 5 -3 3 -295 111 -649 239 -354 129 -645 238 -647 244 -1 5 23 19 55
30 32 12 87 32 123 45 36 13 214 79 395 145 182 67 355 131 385 142 197 74
997 363 1005 363 8 0 173 -59 440 -158 33 -12 211 -77 395 -145 184 -67 362
-133 395 -145 33 -13 179 -67 325 -120 146 -54 294 -108 329 -121 79 -29 92
-40 60 -52 -13 -5 -85 -30 -159 -56 -74 -27 -148 -54 -165 -60 -16 -7 -240
-89 -497 -182 l-467 -169 224 -3 c202 -2 230 0 282 17 84 29 358 127 738 265
115 42 215 76 222 76 10 0 13 -40 13 -180 l0 -180 80 0 80 0 0 270 0 270 -27
12 c-33 12 -46 17 -468 173 -176 64 -354 130 -395 145 -154 57 -497 184 -545
201 -27 9 -79 28 -115 42 -292 110 -735 267 -753 266 -12 0 -29 -3 -37 -6z"/>
<path d="M3686 3878 c-25 -79 -66 -217 -91 -308 -26 -91 -60 -210 -77 -265
-17 -55 -47 -167 -68 -250 -21 -82 -50 -188 -64 -235 -15 -47 -30 -97 -33
-112 l-5 -28 65 0 66 0 14 48 c8 26 29 108 46 183 l32 136 221 10 c122 6 226
9 232 7 13 -5 35 -55 86 -196 22 -59 48 -125 60 -147 l20 -41 85 0 c46 0 87 5
90 10 4 6 -2 25 -13 43 -25 40 -224 437 -287 572 -65 138 -83 179 -112 260
-14 39 -59 147 -100 240 -41 94 -78 180 -83 193 -21 49 -38 24 -84 -120z m119
-285 c21 -54 54 -133 73 -176 19 -42 32 -80 29 -83 -3 -4 -65 -9 -138 -12
-126 -5 -132 -4 -126 14 3 10 29 97 58 191 28 95 55 170 59 168 4 -3 25 -49
45 -102z"/>
<path d="M441 3994 c-130 -35 -254 -131 -307 -240 -39 -80 -41 -194 -5 -267
35 -72 106 -136 225 -206 210 -123 315 -263 272 -365 -12 -28 -26 -42 -62 -57
-98 -44 -238 -9 -331 81 -23 22 -47 40 -52 40 -13 0 -90 -81 -96 -102 -7 -20
75 -139 119 -173 82 -62 314 -84 488 -45 103 22 155 47 215 103 67 61 85 105
90 218 11 219 -87 390 -275 476 -263 120 -292 145 -292 253 0 44 5 56 29 81
25 24 38 29 78 29 65 0 128 -31 241 -119 73 -57 96 -70 107 -61 27 22 97 140
92 154 -8 19 -99 91 -172 135 -103 63 -266 92 -364 65z"/>
<path d="M2283 4002 c-10 -6 -13 -116 -14 -467 -2 -526 1 -554 71 -662 68
-104 157 -154 307 -174 166 -22 293 12 379 103 89 93 133 184 165 335 17 86
20 141 22 464 2 298 -1 369 -12 382 -11 15 -36 17 -165 17 -83 0 -157 -4 -164
-9 -15 -9 -15 19 -12 -422 1 -236 -2 -360 -10 -389 -26 -97 -119 -133 -181
-71 l-29 29 0 417 c0 268 -4 423 -10 436 -10 18 -23 19 -173 19 -89 0 -168 -4
-174 -8z"/>
<path d="M1538 3985 c-140 -35 -248 -125 -317 -267 -55 -113 -74 -203 -74
-368 -2 -252 57 -416 195 -546 72 -68 199 -124 284 -124 56 0 144 33 174 65
l24 25 43 -42 c44 -43 44 -43 129 -47 52 -2 90 1 97 8 7 7 -13 37 -68 103 -43
51 -84 100 -91 108 -11 13 -8 27 20 85 64 134 71 173 71 360 -1 189 -17 276
-76 401 -90 190 -244 280 -411 239z m180 -272 c69 -51 97 -160 97 -383 0 -136
-15 -240 -35 -240 -4 0 -15 9 -25 20 -17 18 -29 20 -109 18 -111 -4 -116 -12
-51 -91 25 -31 45 -58 45 -61 0 -3 -20 -6 -45 -6 -83 0 -134 43 -187 155 -33
69 -33 71 -33 220 l0 150 37 75 c37 77 80 126 133 155 41 22 136 16 173 -12z"/>
<path d="M4523 3972 c-9 -6 -13 -164 -17 -645 -3 -350 -3 -644 0 -652 9 -22
61 -18 85 6 21 21 21 26 15 223 -10 286 -11 550 -2 564 11 18 164 -176 492
-623 140 -190 135 -185 188 -185 54 0 96 15 96 34 0 7 -19 36 -43 62 -57 65
-134 164 -380 494 l-206 275 82 12 c220 32 327 114 327 247 0 47 -4 60 -31 90
-34 39 -102 68 -194 85 -75 13 -396 23 -412 13z m283 -111 c102 -9 148 -24
192 -64 24 -22 29 -65 12 -98 -24 -44 -141 -75 -305 -81 l-100 -3 4 120 c2 66
5 123 8 128 5 9 60 8 189 -2z"/>
<path d="M5917 3964 c-2 -2 -92 -5 -200 -6 -108 -1 -202 -5 -208 -8 -7 -5 -13
-108 -17 -331 -10 -598 -6 -903 13 -919 9 -7 133 -11 387 -11 205 -1 379 -1
386 0 9 1 12 16 10 54 l-3 52 -338 2 c-187 1 -341 3 -343 5 -2 2 -5 124 -8
270 l-4 265 112 6 c163 10 330 8 447 -4 117 -12 121 -10 117 61 l-3 45 -325 0
c-179 0 -331 4 -337 8 -10 6 -13 57 -13 197 l0 188 73 7 c39 4 199 5 355 3
l282 -3 0 53 c0 33 -5 54 -12 57 -18 5 -366 14 -371 9z"/>
<path d="M902 2033 l3 -276 1055 -384 c580 -211 1096 -397 1145 -414 l90 -32
145 53 c80 29 201 73 270 97 69 25 141 51 160 59 19 7 94 34 165 60 72 25 159
57 195 71 36 13 83 30 105 38 22 7 72 25 110 40 39 14 88 33 110 40 22 8 72
26 110 40 39 14 120 43 180 65 61 21 142 51 180 65 39 15 88 33 110 40 22 8
72 26 110 40 39 15 88 33 110 40 35 12 118 42 208 76 l27 11 0 274 0 274 -80
0 -80 0 0 -214 c0 -159 -3 -216 -12 -223 -7 -6 -346 -131 -753 -278 -407 -148
-861 -312 -1010 -366 -148 -54 -273 -95 -277 -93 -4 3 -8 268 -8 590 l0 584
-80 0 -80 0 0 -590 c0 -324 -3 -590 -6 -590 -3 0 -240 85 -527 189 -287 105
-745 271 -1017 369 l-495 180 -3 221 -2 221 -80 0 -80 0 2 -277z"/>
</g>
</svg>
